<svg width="268" height="231" viewBox="0 0 268 231" fill="none" xmlns="http://www.w3.org/2000/svg">
<path fill-rule="evenodd" clip-rule="evenodd" d="M63.6043 186C57.6043 190 59.4376 214 61.1043 225.5C56.1043 222 46.6043 211.3 48.6043 196.5C48.9376 191.333 50.3043 180.2 53.1043 177C53.9376 175.833 56.2043 173.6 58.6043 174L77.1043 175C75.2709 172.167 71.6043 166.4 71.6043 166C71.6043 165.5 57.1043 162 43.1043 161C40.9376 161.833 33.9043 169.8 23.1043 195C21.2709 193.167 18.0043 187.7 19.6043 180.5C20.9376 173.5 26.2043 157.4 36.6043 149C37.771 148.167 40.6043 146.7 42.6043 147.5L63.6043 151.5L57.1043 140L37.6043 132C36.9376 131.833 35.3043 131.6 34.1043 132C28.9376 135.667 15.7043 146.9 4.1043 162.5C3.27097 160.667 2.1043 155.5 4.1043 149.5C7.27097 142.667 17.6043 127.1 33.6043 119.5C34.1043 119.333 35.6043 119.1 37.6043 119.5C39.271 119.833 45.7043 121.6 58.1043 126L64.6043 118.5C56.771 115.333 37.8043 106.2 24.6043 95C21.4376 92.8333 14.8043 80.3 13.6043 47.5C13.6043 45.8333 14.2043 41.4 16.6043 37C17.6043 34.5 26.5043 24.8 54.1043 6C51.4376 18.5 46.2043 44.3 46.6043 47.5L77.1043 27.5C81.1043 36.8333 81.2043 60.6 49.6043 81C49.6043 83.3333 50.6043 89.5 54.6043 95.5C56.4376 97.5 62.8043 102.6 73.6043 107L96.6043 79.5C97.4376 78.6667 100.304 77.1 105.104 77.5V68C101.331 67 94.3158 62.6 96.4441 53C97.1641 50.3932 100.104 44.8115 106.104 43.3397C110.759 42.3932 120.622 43 122.836 53C123.64 56.5 123.034 64.4 114.176 68V77.5H153.604V68.5C150.357 67 144.135 62 145.233 54C145.857 50.5856 148.904 43.6312 156.104 43.1284C161.104 42.3379 171.104 44.2312 171.104 58.1284C171.104 60.2523 169.404 65.3 162.604 68.5V77.5H165.604C167.438 77.5 171.504 78.3 173.104 81.5L194.104 107L211.104 97C212.938 95.6667 217.004 90.7 218.604 81.5C205.938 73.3333 182.504 51 190.104 27L222.104 48L213.104 6C223.771 12.6667 246.504 28.8 252.104 40C254.271 46.8333 256.104 66.8 246.104 92C242.438 96.6667 228.904 108.6 204.104 119L210.104 127L228.104 120C229.604 119.333 233.404 118.5 236.604 120.5C247.604 127.5 268.604 145.7 264.604 162.5C259.438 155.333 245.504 139.1 231.104 131.5L211.104 139.5L204.104 151.5L221.104 148.5C223.938 147.833 230.204 147.3 232.604 150.5C240.604 159 254.404 179.8 245.604 195C241.271 185 231.104 164.2 225.104 161L197.104 165.5L190.604 175.5L206.104 174.5C208.771 174.333 214.504 175.2 216.104 180C219.771 191 223.104 215.4 207.104 225C208.771 216.167 210.604 196 204.604 186L184.104 187.5C182.771 191 178.304 198.7 171.104 201.5C165.604 202.667 149.904 205 131.104 205C105.504 204.6 94.771 201.167 92.6043 199.5C89.8043 197.5 85.4376 190.667 83.6043 187.5C76.0043 185.9 67.1043 185.833 63.6043 186ZM103.604 178V164H110.604V118H104.104V103H147.604C153.604 103.5 165.604 109 165.604 127C165.438 131.833 162.604 142.6 152.604 147L161.604 164H170.104V178H151.604L135.104 149.421H126.104V164H133.604V178H103.604Z" fill="white" stroke="white" stroke-width="5"/>
</svg>
